<svg id="svg" fill="#ffffff" stroke="#ffffff" width="200" height="200" version="1.1" viewBox="144 144 512 512" xmlns="http://www.w3.org/2000/svg">
    <g id="IconSvg_bgCarrier" stroke-width="0"></g>
    <g id="IconSvg_tracerCarrier" stroke-linecap="round" stroke-linejoin="round" stroke="#CCCCCC" stroke-width="0">
      <path xmlns="http://www.w3.org/2000/svg" d="m203.51 544.96h392.97c2.7812 0 5.0391-2.2539 5.0391-5.0391v-287.17c0-2.7812-2.2539-5.0391-5.0391-5.0391l-392.97 0.003906c-2.7812 0-5.0391 2.2539-5.0391 5.0391v287.17c0.003906 2.7812 2.2578 5.0352 5.0391 5.0352zm387.93-16.375-133.04-130.69 133.04-133.66zm-193.93-76.672c0.94531 0.94531 2.2266 1.4766 3.5625 1.4766h0.003907c1.3398-0.003906 2.6211-0.53516 3.5664-1.4844l46.648-46.867 132.18 129.85h-365.71l132.54-130.19zm3.5547-10.695-183.43-183.43h365.98zm-57.898-43.648-134.62 132.25v-266.87z"></path>

      </g>
     <g id="IconSvg_iconCarrier">
      <path xmlns="http://www.w3.org/2000/svg" d="m203.51 544.96h392.97c2.7812 0 5.0391-2.2539 5.0391-5.0391v-287.17c0-2.7812-2.2539-5.0391-5.0391-5.0391l-392.97 0.003906c-2.7812 0-5.0391 2.2539-5.0391 5.0391v287.17c0.003906 2.7812 2.2578 5.0352 5.0391 5.0352zm387.93-16.375-133.04-130.69 133.04-133.66zm-193.93-76.672c0.94531 0.94531 2.2266 1.4766 3.5625 1.4766h0.003907c1.3398-0.003906 2.6211-0.53516 3.5664-1.4844l46.648-46.867 132.18 129.85h-365.71l132.54-130.19zm3.5547-10.695-183.43-183.43h365.98zm-57.898-43.648-134.62 132.25v-266.87z"></path>

      </g>
      </svg>