<svg id="svg" fill="#6f64b4" stroke="#6f64b4" width="200" height="200" version="1.1" viewBox="144 144 512 512" xmlns="http://www.w3.org/2000/svg">
    <g id="IconSvg_bgCarrier" stroke-width="0"></g>
    <g id="IconSvg_tracerCarrier" stroke-linecap="round" stroke-linejoin="round" stroke="#CCCCCC" stroke-width="0">
      <path xmlns="http://www.w3.org/2000/svg" d="m525.18 205.16c0-2.5078-1.8516-4.6406-4.3359-4.9883-37.477-5.2734-67.578 1.707-89.473 20.742-17.559 15.266-26.656 35.477-31.371 52.438-4.7148-16.965-13.816-37.176-31.371-52.438-21.898-19.031-52-26.016-89.473-20.742-2.4883 0.34766-4.3359 2.4805-4.3359 4.9883 0 67.352 53.461 122.45 120.17 125.08v23.93c-65.914 2.6406-118.73 57.059-118.73 123.61 0 17.441 3.6445 34.039 10.188 49.105 0.0625 0.17969 0.14844 0.33203 0.22656 0.5 19.156 43.598 62.727 74.133 113.32 74.133 45.859 0 85.941-25.098 107.31-62.258 0.050781-0.10938 0.13672-0.19922 0.17969-0.3125 10.312-18.055 16.242-38.922 16.242-61.164 0-50.473-30.391-93.957-73.82-113.18-0.15234-0.070313-0.29297-0.14844-0.44922-0.20312-13.695-5.9961-28.668-9.582-44.398-10.223v-23.938c66.688-2.668 120.11-57.75 120.11-125.08zm-87.199 23.363c18.754-16.305 44.664-22.656 77.039-18.938-2.2695 59.75-50.289 107.98-109.95 110.57v-13.574c0-0.16797-0.003906-0.63281-0.023437-1.3594 0.31641-8.1484 3.3867-51.016 32.938-76.703zm-153-18.938c32.367-3.7148 58.242 2.6289 76.984 18.887 29.562 25.648 32.668 68.707 32.992 76.785-0.019531 0.70312-0.023437 1.1562-0.023437 1.3242 0 0.26172 0.019531 0.52344 0.058593 0.77344v12.801c-59.691-2.5664-107.75-50.805-110.01-110.57zm78.547 160.57c5.9492 4.8789 16.746 15.648 18.363 26.289 0.70312 4.625-0.36328 8.7656-3.2578 12.668-17.059 22.973-20.496 29.473-21.566 52.355-1.3008 27.75-9.9062 59.098-62.473 58.742-5.3008-13.121-8.25-27.438-8.25-42.434 0-49.91 32.355-92.383 77.184-107.62zm49.051 220.57c0.32422-15.91-7.6055-33.113-7.8438-33.586-0.125-0.33984-12.234-34.207 3.1641-53.863 15.055-19.211 33.887-13.727 34.652-13.484 0.26562 0.082031 0.55859 0.14844 0.83594 0.1875 1.3945 0.20312 33.77 5.3828 53.641 46.941-17.918 29.281-48.715 49.852-84.449 53.805zm90.266-64.613c-21.48-38.922-53.434-45.363-57.676-46.051-3.5898-1.0078-26.883-6.375-45.203 17.004-18.879 24.094-5.2773 61.949-4.5273 63.941 0.085937 0.17969 7.6914 16.77 7.0273 30.371-0.82422 0.015625-1.6367 0.058593-2.4609 0.058593-43.73 0-81.746-24.84-100.75-61.137 64.691-1.7656 67.086-51.543 67.875-68.359 0.95312-20.328 3.5898-25.27 19.59-46.824 4.5156-6.082 6.2422-12.871 5.1328-20.184-1.7461-11.492-10.344-21.723-16.855-28.012 8.0469-1.8125 16.41-2.8047 25.004-2.8047 12.57 0 24.66 2.082 35.973 5.8711-11.938 7.668-29.512 22.98-21.555 43.293 6.8945 17.59 17.719 18.805 26.414 19.777 5.5781 0.625 10.402 1.168 15.027 5.3867 10.316 9.4062 21.977 12.926 32.902 12.922 7.4609 0 14.574-1.6445 20.684-4.168 2.7266 9.7383 4.2148 19.988 4.2148 30.582 0 17.277-3.8945 33.652-10.82 48.332zm3.4492-88.539c-8.3867 3.6016-26.906 8.6875-43.641-6.5742-7.0391-6.4258-14.609-7.2773-20.695-7.957-8.1172-0.91016-13.48-1.5156-18.156-13.445-6.7812-17.301 16.93-31.145 24.09-34.863 26.754 12.488 47.863 35.074 58.402 62.84z"></path>

      </g>
     <g id="IconSvg_iconCarrier">
      <path xmlns="http://www.w3.org/2000/svg" d="m525.18 205.16c0-2.5078-1.8516-4.6406-4.3359-4.9883-37.477-5.2734-67.578 1.707-89.473 20.742-17.559 15.266-26.656 35.477-31.371 52.438-4.7148-16.965-13.816-37.176-31.371-52.438-21.898-19.031-52-26.016-89.473-20.742-2.4883 0.34766-4.3359 2.4805-4.3359 4.9883 0 67.352 53.461 122.45 120.17 125.08v23.93c-65.914 2.6406-118.73 57.059-118.73 123.61 0 17.441 3.6445 34.039 10.188 49.105 0.0625 0.17969 0.14844 0.33203 0.22656 0.5 19.156 43.598 62.727 74.133 113.32 74.133 45.859 0 85.941-25.098 107.31-62.258 0.050781-0.10938 0.13672-0.19922 0.17969-0.3125 10.312-18.055 16.242-38.922 16.242-61.164 0-50.473-30.391-93.957-73.82-113.18-0.15234-0.070313-0.29297-0.14844-0.44922-0.20312-13.695-5.9961-28.668-9.582-44.398-10.223v-23.938c66.688-2.668 120.11-57.75 120.11-125.08zm-87.199 23.363c18.754-16.305 44.664-22.656 77.039-18.938-2.2695 59.75-50.289 107.98-109.95 110.57v-13.574c0-0.16797-0.003906-0.63281-0.023437-1.3594 0.31641-8.1484 3.3867-51.016 32.938-76.703zm-153-18.938c32.367-3.7148 58.242 2.6289 76.984 18.887 29.562 25.648 32.668 68.707 32.992 76.785-0.019531 0.70312-0.023437 1.1562-0.023437 1.3242 0 0.26172 0.019531 0.52344 0.058593 0.77344v12.801c-59.691-2.5664-107.75-50.805-110.01-110.57zm78.547 160.57c5.9492 4.8789 16.746 15.648 18.363 26.289 0.70312 4.625-0.36328 8.7656-3.2578 12.668-17.059 22.973-20.496 29.473-21.566 52.355-1.3008 27.75-9.9062 59.098-62.473 58.742-5.3008-13.121-8.25-27.438-8.25-42.434 0-49.91 32.355-92.383 77.184-107.62zm49.051 220.57c0.32422-15.91-7.6055-33.113-7.8438-33.586-0.125-0.33984-12.234-34.207 3.1641-53.863 15.055-19.211 33.887-13.727 34.652-13.484 0.26562 0.082031 0.55859 0.14844 0.83594 0.1875 1.3945 0.20312 33.77 5.3828 53.641 46.941-17.918 29.281-48.715 49.852-84.449 53.805zm90.266-64.613c-21.48-38.922-53.434-45.363-57.676-46.051-3.5898-1.0078-26.883-6.375-45.203 17.004-18.879 24.094-5.2773 61.949-4.5273 63.941 0.085937 0.17969 7.6914 16.77 7.0273 30.371-0.82422 0.015625-1.6367 0.058593-2.4609 0.058593-43.73 0-81.746-24.84-100.75-61.137 64.691-1.7656 67.086-51.543 67.875-68.359 0.95312-20.328 3.5898-25.27 19.59-46.824 4.5156-6.082 6.2422-12.871 5.1328-20.184-1.7461-11.492-10.344-21.723-16.855-28.012 8.0469-1.8125 16.41-2.8047 25.004-2.8047 12.57 0 24.66 2.082 35.973 5.8711-11.938 7.668-29.512 22.98-21.555 43.293 6.8945 17.59 17.719 18.805 26.414 19.777 5.5781 0.625 10.402 1.168 15.027 5.3867 10.316 9.4062 21.977 12.926 32.902 12.922 7.4609 0 14.574-1.6445 20.684-4.168 2.7266 9.7383 4.2148 19.988 4.2148 30.582 0 17.277-3.8945 33.652-10.82 48.332zm3.4492-88.539c-8.3867 3.6016-26.906 8.6875-43.641-6.5742-7.0391-6.4258-14.609-7.2773-20.695-7.957-8.1172-0.91016-13.48-1.5156-18.156-13.445-6.7812-17.301 16.93-31.145 24.09-34.863 26.754 12.488 47.863 35.074 58.402 62.84z"></path>

      </g>
      </svg>