<svg id="svg" fill="#6f64b4" stroke="#6f64b4" width="200" height="200" version="1.1" viewBox="144 144 512 512" xmlns="http://www.w3.org/2000/svg">
    <g id="IconSvg_bgCarrier" stroke-width="0"></g>
    <g id="IconSvg_tracerCarrier" stroke-linecap="round" stroke-linejoin="round" stroke="#CCCCCC" stroke-width="0">
      <path xmlns="http://www.w3.org/2000/svg" d="m400 198.48c-43.719 0-84.203 14.043-117.26 37.785h-44.426c-2.7852 0-5.0391 2.2539-5.0391 5.0391 0 2.7852 2.2539 5.0391 5.0391 5.0391h31.512c-43.602 36.992-71.348 92.133-71.348 153.66 0 111.12 90.402 201.52 201.52 201.52 43.719 0 84.203-14.043 117.26-37.785h44.426c2.7852 0 5.0391-2.2539 5.0391-5.0391 0-2.7852-2.2539-5.0391-5.0391-5.0391h-31.512c43.598-36.996 71.348-92.137 71.348-153.66 0-111.12-90.406-201.52-201.52-201.52zm121.54 349.32v-34.285c0-2.7852-2.2539-5.0391-5.0391-5.0391s-5.0391 2.2539-5.0391 5.0391v41.984c-31.422 22.59-69.902 35.945-111.46 35.945-105.56 0-191.45-85.883-191.45-191.45 0-59.453 27.246-112.66 69.902-147.8v34.285c0 2.7852 2.2539 5.0391 5.0391 5.0391 2.7852 0 5.0391-2.2539 5.0391-5.0391v-41.984c31.422-22.59 69.902-35.945 111.47-35.945 105.56 0 191.45 85.883 191.45 191.45-0.003907 59.453-27.25 112.66-69.906 147.8z"></path>

      </g>
     <g id="IconSvg_iconCarrier">
      <path xmlns="http://www.w3.org/2000/svg" d="m400 198.48c-43.719 0-84.203 14.043-117.26 37.785h-44.426c-2.7852 0-5.0391 2.2539-5.0391 5.0391 0 2.7852 2.2539 5.0391 5.0391 5.0391h31.512c-43.602 36.992-71.348 92.133-71.348 153.66 0 111.12 90.402 201.52 201.52 201.52 43.719 0 84.203-14.043 117.26-37.785h44.426c2.7852 0 5.0391-2.2539 5.0391-5.0391 0-2.7852-2.2539-5.0391-5.0391-5.0391h-31.512c43.598-36.996 71.348-92.137 71.348-153.66 0-111.12-90.406-201.52-201.52-201.52zm121.54 349.32v-34.285c0-2.7852-2.2539-5.0391-5.0391-5.0391s-5.0391 2.2539-5.0391 5.0391v41.984c-31.422 22.59-69.902 35.945-111.46 35.945-105.56 0-191.45-85.883-191.45-191.45 0-59.453 27.246-112.66 69.902-147.8v34.285c0 2.7852 2.2539 5.0391 5.0391 5.0391 2.7852 0 5.0391-2.2539 5.0391-5.0391v-41.984c31.422-22.59 69.902-35.945 111.47-35.945 105.56 0 191.45 85.883 191.45 191.45-0.003907 59.453-27.25 112.66-69.906 147.8z"></path>

      </g>
      </svg>