<svg id="svg" fill="#6f64b4" stroke="#6f64b4" width="200" height="200" version="1.1" viewBox="144 144 512 512" xmlns="http://www.w3.org/2000/svg">
    <g id="IconSvg_bgCarrier" stroke-width="0"></g>
    <g id="IconSvg_tracerCarrier" stroke-linecap="round" stroke-linejoin="round" stroke="#CCCCCC" stroke-width="0">
      <g xmlns="http://www.w3.org/2000/svg">
  <path d="m350.78 342.49v30.113h-4.9336c-9.9336 0-18.016 8.082-18.016 18.016v43.082c0 40.137 32.652 72.789 72.789 72.789 40.137 0 72.789-32.652 72.789-72.789v-43.082c0-9.9336-8.082-18.016-18.016-18.016h-4.9336v-30.113c0-27.484-22.359-49.848-49.848-49.848-27.484 0.003907-49.832 22.367-49.832 49.848zm112.56 48.129v43.082c0 34.582-28.133 62.715-62.715 62.715-34.582 0-62.715-28.133-62.715-62.715v-43.082c0-4.3789 3.5625-7.9414 7.9414-7.9414h109.55c4.3711-0.003907 7.9336 3.5664 7.9336 7.9414zm-42.383-18.02h-40.664v-28.398c0-11.211 9.125-20.328 20.332-20.328 11.211 0 20.332 9.125 20.332 20.328l0.007812 28.398zm19.438-30.109v30.113h-9.3594v-28.398c0-16.766-13.645-30.406-30.41-30.406s-30.41 13.637-30.41 30.406v28.398h-9.3594v-30.113c0-21.93 17.84-39.77 39.77-39.77 21.93 0 39.77 17.84 39.77 39.77z"></path>
  <path d="m395.59 440.11v16.602c0 2.7852 2.2578 5.0391 5.0391 5.0391s5.0391-2.2539 5.0391-5.0391v-16.602c7.4922-2.1953 13.012-9.0547 13.012-17.25 0-9.957-8.0977-18.051-18.051-18.051-9.957 0-18.051 8.0977-18.051 18.051 0 8.1914 5.5195 15.051 13.012 17.25zm5.0391-25.23c4.3984 0 7.9766 3.5781 7.9766 7.9766 0 4.3984-3.5781 7.9805-7.9766 7.9805-4.3984 0-7.9766-3.582-7.9766-7.9805 0-4.3984 3.5781-7.9766 7.9766-7.9766z"></path>
  <path d="m549.59 230.05c2.3633 12.227 13.121 21.504 26.031 21.504 14.629 0 26.535-11.906 26.535-26.539 0-14.637-11.906-26.535-26.535-26.535-12.906 0-23.664 9.2695-26.031 21.496l-57.414-0.003907c-1.4805 0-2.8867 0.65625-3.8477 1.7852l-43.23 51.102c-13.926-4.9023-28.883-7.5977-44.465-7.5977-15.582 0-30.539 2.6953-44.465 7.5977l-43.23-51.102c-0.95703-1.1328-2.3672-1.7852-3.8477-1.7852h-57.414c-2.3633-12.227-13.121-21.496-26.031-21.496-14.629 0-26.535 11.898-26.535 26.535s11.906 26.539 26.535 26.539c12.906 0 23.664-9.2734 26.031-21.504h55.078l39.543 46.738c-45.727 20.32-78.059 65.426-79.848 118.17h-14.855c-2.5547-11.98-13.203-21.004-25.938-21.004-14.629 0-26.535 11.906-26.535 26.539 0 14.637 11.906 26.539 26.535 26.539 13.078 0 23.91-9.5312 26.078-21.996h14.742c2.1367 52.926 35.02 98.055 81.254 117.95l-39.898 47.152-56.156 0.003907c-2.3633-12.227-13.121-21.504-26.031-21.504-14.629 0-26.535 11.906-26.535 26.539 0 14.637 11.906 26.539 26.535 26.539 12.906 0 23.664-9.2734 26.031-21.504h58.48c1.4805 0 2.8867-0.65625 3.8438-1.7852l43.695-51.641c13.492 4.5664 27.922 7.0781 42.941 7.0781 15.02 0 29.449-2.5156 42.941-7.0781l43.695 51.641c0.95703 1.1328 2.3633 1.7852 3.8438 1.7852h58.48c2.3633 12.227 13.121 21.504 26.031 21.504 14.629 0 26.535-11.906 26.535-26.539 0-14.637-11.906-26.539-26.535-26.539-12.906 0-23.664 9.2734-26.031 21.504h-56.152l-39.898-47.152c46.23-19.895 79.117-65.027 81.254-117.95h14.742c2.168 12.465 13 21.996 26.078 21.996 14.629 0 26.535-11.906 26.535-26.539 0-14.637-11.906-26.539-26.535-26.539-12.734 0-23.383 9.0234-25.938 21.004h-14.863c-1.7891-52.75-34.121-97.855-79.848-118.17l39.543-46.738zm26.031-21.5c9.0742 0 16.461 7.3867 16.461 16.461 0 9.0781-7.3867 16.465-16.461 16.465-9.0781 0-16.465-7.3867-16.465-16.465 0-9.0742 7.3867-16.461 16.465-16.461zm-349.98 32.922c-9.0742 0-16.461-7.3867-16.461-16.465 0-9.0742 7.3867-16.461 16.461-16.461 9.0781 0 16.465 7.3867 16.465 16.461 0 9.0781-7.3867 16.465-16.465 16.465zm0 175.48c-9.0742 0-16.461-7.3867-16.461-16.465s7.3867-16.465 16.461-16.465c9.0781 0 16.465 7.3867 16.465 16.465s-7.3867 16.465-16.465 16.465zm0 174.69c-9.0742 0-16.461-7.3867-16.461-16.465s7.3867-16.465 16.461-16.465c9.0781 0 16.465 7.3867 16.465 16.465s-7.3867 16.465-16.465 16.465zm349.98-32.926c9.0742 0 16.461 7.3867 16.461 16.465s-7.3867 16.465-16.461 16.465c-9.0781 0-16.465-7.3867-16.465-16.465s7.3867-16.465 16.465-16.465zm0-174.68c9.0742 0 16.461 7.3867 16.461 16.465s-7.3867 16.465-16.461 16.465c-9.0781 0-16.465-7.3867-16.465-16.465 0-9.082 7.3867-16.465 16.465-16.465zm-50.758 15.531c0 68.504-55.73 124.23-124.23 124.23s-124.23-55.727-124.23-124.23c0-68.504 55.73-124.23 124.23-124.23 68.496 0 124.23 55.727 124.23 124.23z"></path>
 </g>

      </g>
     <g id="IconSvg_iconCarrier">
      <g xmlns="http://www.w3.org/2000/svg">
  <path d="m350.78 342.49v30.113h-4.9336c-9.9336 0-18.016 8.082-18.016 18.016v43.082c0 40.137 32.652 72.789 72.789 72.789 40.137 0 72.789-32.652 72.789-72.789v-43.082c0-9.9336-8.082-18.016-18.016-18.016h-4.9336v-30.113c0-27.484-22.359-49.848-49.848-49.848-27.484 0.003907-49.832 22.367-49.832 49.848zm112.56 48.129v43.082c0 34.582-28.133 62.715-62.715 62.715-34.582 0-62.715-28.133-62.715-62.715v-43.082c0-4.3789 3.5625-7.9414 7.9414-7.9414h109.55c4.3711-0.003907 7.9336 3.5664 7.9336 7.9414zm-42.383-18.02h-40.664v-28.398c0-11.211 9.125-20.328 20.332-20.328 11.211 0 20.332 9.125 20.332 20.328l0.007812 28.398zm19.438-30.109v30.113h-9.3594v-28.398c0-16.766-13.645-30.406-30.41-30.406s-30.41 13.637-30.41 30.406v28.398h-9.3594v-30.113c0-21.93 17.84-39.77 39.77-39.77 21.93 0 39.77 17.84 39.77 39.77z"></path>
  <path d="m395.59 440.11v16.602c0 2.7852 2.2578 5.0391 5.0391 5.0391s5.0391-2.2539 5.0391-5.0391v-16.602c7.4922-2.1953 13.012-9.0547 13.012-17.25 0-9.957-8.0977-18.051-18.051-18.051-9.957 0-18.051 8.0977-18.051 18.051 0 8.1914 5.5195 15.051 13.012 17.25zm5.0391-25.23c4.3984 0 7.9766 3.5781 7.9766 7.9766 0 4.3984-3.5781 7.9805-7.9766 7.9805-4.3984 0-7.9766-3.582-7.9766-7.9805 0-4.3984 3.5781-7.9766 7.9766-7.9766z"></path>
  <path d="m549.59 230.05c2.3633 12.227 13.121 21.504 26.031 21.504 14.629 0 26.535-11.906 26.535-26.539 0-14.637-11.906-26.535-26.535-26.535-12.906 0-23.664 9.2695-26.031 21.496l-57.414-0.003907c-1.4805 0-2.8867 0.65625-3.8477 1.7852l-43.23 51.102c-13.926-4.9023-28.883-7.5977-44.465-7.5977-15.582 0-30.539 2.6953-44.465 7.5977l-43.23-51.102c-0.95703-1.1328-2.3672-1.7852-3.8477-1.7852h-57.414c-2.3633-12.227-13.121-21.496-26.031-21.496-14.629 0-26.535 11.898-26.535 26.535s11.906 26.539 26.535 26.539c12.906 0 23.664-9.2734 26.031-21.504h55.078l39.543 46.738c-45.727 20.32-78.059 65.426-79.848 118.17h-14.855c-2.5547-11.98-13.203-21.004-25.938-21.004-14.629 0-26.535 11.906-26.535 26.539 0 14.637 11.906 26.539 26.535 26.539 13.078 0 23.91-9.5312 26.078-21.996h14.742c2.1367 52.926 35.02 98.055 81.254 117.95l-39.898 47.152-56.156 0.003907c-2.3633-12.227-13.121-21.504-26.031-21.504-14.629 0-26.535 11.906-26.535 26.539 0 14.637 11.906 26.539 26.535 26.539 12.906 0 23.664-9.2734 26.031-21.504h58.48c1.4805 0 2.8867-0.65625 3.8438-1.7852l43.695-51.641c13.492 4.5664 27.922 7.0781 42.941 7.0781 15.02 0 29.449-2.5156 42.941-7.0781l43.695 51.641c0.95703 1.1328 2.3633 1.7852 3.8438 1.7852h58.48c2.3633 12.227 13.121 21.504 26.031 21.504 14.629 0 26.535-11.906 26.535-26.539 0-14.637-11.906-26.539-26.535-26.539-12.906 0-23.664 9.2734-26.031 21.504h-56.152l-39.898-47.152c46.23-19.895 79.117-65.027 81.254-117.95h14.742c2.168 12.465 13 21.996 26.078 21.996 14.629 0 26.535-11.906 26.535-26.539 0-14.637-11.906-26.539-26.535-26.539-12.734 0-23.383 9.0234-25.938 21.004h-14.863c-1.7891-52.75-34.121-97.855-79.848-118.17l39.543-46.738zm26.031-21.5c9.0742 0 16.461 7.3867 16.461 16.461 0 9.0781-7.3867 16.465-16.461 16.465-9.0781 0-16.465-7.3867-16.465-16.465 0-9.0742 7.3867-16.461 16.465-16.461zm-349.98 32.922c-9.0742 0-16.461-7.3867-16.461-16.465 0-9.0742 7.3867-16.461 16.461-16.461 9.0781 0 16.465 7.3867 16.465 16.461 0 9.0781-7.3867 16.465-16.465 16.465zm0 175.48c-9.0742 0-16.461-7.3867-16.461-16.465s7.3867-16.465 16.461-16.465c9.0781 0 16.465 7.3867 16.465 16.465s-7.3867 16.465-16.465 16.465zm0 174.69c-9.0742 0-16.461-7.3867-16.461-16.465s7.3867-16.465 16.461-16.465c9.0781 0 16.465 7.3867 16.465 16.465s-7.3867 16.465-16.465 16.465zm349.98-32.926c9.0742 0 16.461 7.3867 16.461 16.465s-7.3867 16.465-16.461 16.465c-9.0781 0-16.465-7.3867-16.465-16.465s7.3867-16.465 16.465-16.465zm0-174.68c9.0742 0 16.461 7.3867 16.461 16.465s-7.3867 16.465-16.461 16.465c-9.0781 0-16.465-7.3867-16.465-16.465 0-9.082 7.3867-16.465 16.465-16.465zm-50.758 15.531c0 68.504-55.73 124.23-124.23 124.23s-124.23-55.727-124.23-124.23c0-68.504 55.73-124.23 124.23-124.23 68.496 0 124.23 55.727 124.23 124.23z"></path>
 </g>

      </g>
      </svg>