<svg id="svg" fill="#6f64b4" stroke="#6f64b4" width="200" height="200" version="1.1" viewBox="144 144 512 512" xmlns="http://www.w3.org/2000/svg">
    <g id="IconSvg_bgCarrier" stroke-width="0"></g>
    <g id="IconSvg_tracerCarrier" stroke-linecap="round" stroke-linejoin="round" stroke="#CCCCCC" stroke-width="0">
      <g xmlns="http://www.w3.org/2000/svg">
  <path d="m440.15 430.45c-2.6289-0.91797-5.5 0.46094-6.4219 3.082-2.7422 7.8125-5.1914 15.836-7.2695 23.852-0.76953 2.9609-1.6562 6.6562-2.6758 10.906-2.9492 12.305-6.9883 29.156-12.547 46.355-0.85547 2.6484 0.59766 5.4883 3.2461 6.3438 0.51562 0.16406 1.0391 0.24609 1.5508 0.24609 2.1289 0 4.1016-1.3594 4.793-3.4922 5.6797-17.57 9.7695-34.641 12.758-47.105 1-4.1836 1.8711-7.8164 2.6289-10.727 2.0117-7.7422 4.375-15.496 7.0234-23.043 0.91797-2.625-0.46094-5.5-3.0859-6.418z"></path>
  <path d="m376.21 468.29c-1.0195-4.25-1.9023-7.9453-2.6758-10.91-2.1445-8.2539-4.6719-16.516-7.5156-24.551-0.93359-2.6289-3.8242-4.0078-6.4297-3.0703-2.625 0.92969-3.9961 3.8086-3.0703 6.4297 2.75 7.7656 5.1914 15.746 7.2656 23.723 0.75391 2.9141 1.625 6.5469 2.6289 10.727 2.9883 12.465 7.0781 29.535 12.758 47.105 0.69141 2.1328 2.668 3.4922 4.793 3.4922 0.51172 0 1.0352-0.082031 1.5508-0.24609 2.6484-0.85547 4.1016-3.6992 3.2461-6.3438-5.5625-17.199-9.6016-34.051-12.551-46.355z"></path>
  <path d="m305.07 414.32c3.1289 5.5039 11.402 21.094 17.828 42.551 0.75391 2.5195 1.625 5.6641 2.6289 9.2852 7.4883 27.066 20.676 74.637 46.711 96.551l-22.332 3.7812c-8.375 1.4141-14.453 8.6094-14.453 17.105v3.1602c0 8.1445 6.625 14.773 14.773 14.773h99.551c8.1484 0 14.773-6.6289 14.773-14.773v-3.1602c0-8.4961-6.082-15.691-14.457-17.109l-22.332-3.7812c26.035-21.914 39.223-69.484 46.711-96.551 1-3.6172 1.8711-6.7656 2.6289-9.2852 6.4258-21.453 14.699-37.043 17.828-42.551 9.8281-0.85938 17.586-9.0352 17.586-19.082v-9.5742c0-10.613-8.6328-19.246-19.25-19.246h-8.168c9.832-8.1094 16.109-20.383 16.109-34.094 0-21.148-14.809-34.801-39.02-36.469 6.7773-8.8594 9.4648-16.535 9.4648-25.855 0-21.082-20.918-33.602-38.828-37.918-26.824-6.4648-28.047-26.375-28.098-28.621-0.0625-2.7383-2.3008-4.9805-5.0391-4.9805-20.402 0-36.996 16.609-36.996 37.02 0 2.7422 0.30078 5.4375 0.89844 8.082-20.375 0.59375-36.766 17.363-36.766 37.895 0 6.0156 1.4375 11.895 4.1367 17.188-18.277 3.3203-32.184 19.363-32.184 38.602 0 11.578 5.0664 21.965 13.062 29.152h-5.1133c-10.613 0-19.25 8.6328-19.25 19.246v9.5742c0.007813 10.047 7.7695 18.227 17.594 19.086zm149.41 169.27v3.1602c0 2.5898-2.1094 4.6953-4.6992 4.6953h-99.551c-2.5898 0-4.6992-2.1055-4.6992-4.6992v-3.1602c0-3.5625 2.5508-6.582 6.0625-7.1758l34.473-5.8359h27.871l34.473 5.8359c3.5195 0.59766 6.0703 3.6172 6.0703 7.1797zm12.973-129.62c-0.77344 2.5742-1.6602 5.7891-2.6836 9.4922-7.4219 26.824-22.801 82.285-51.727 97.039h-26.074c-28.926-14.754-44.305-70.215-51.727-97.039-1.0234-3.6992-1.9102-6.9141-2.6836-9.4922-5.3164-17.738-11.742-31.508-15.91-39.488h166.71c-4.1641 7.9805-10.594 21.746-15.91 39.488zm-129.46-145.87c0.41016 0 0.8125 0.03125 1.2188 0.058593l0.57422 0.035157c1.9844 0.14453 3.9336-0.98828 4.8281-2.8164 0.89453-1.8281 0.60156-4.0117-0.74219-5.5391-4.4883-5.0977-6.9609-11.625-6.9609-18.371 0-15.348 12.477-27.836 27.809-27.836 1.6758 0 3.4258 0.16797 5.1953 0.50391 1.8711 0.35938 3.7656-0.375 4.9258-1.8711 1.1602-1.5 1.3789-3.5234 0.5625-5.2383-1.7422-3.6719-2.625-7.5508-2.625-11.539 0-13.359 9.7656-24.48 22.523-26.586 1.8125 9.0234 8.7383 26.59 35.172 32.961 15.488 3.7305 31.113 13.871 31.113 28.121 0 8.1055-2.3555 15.254-14.402 27.781-1.5039 1.5586-1.8359 3.9102-0.83203 5.8281 1.0078 1.9219 3.1523 2.9805 5.2656 2.6367 2.0234-0.32812 3.8086-0.48438 5.4648-0.48438 6.3828 0 24.27 1.2578 31.223 14.312-9.7539 1.5781-15.527 6.8398-20.668 11.617-5.6758 5.2734-10.156 9.4375-19.789 9.4375-9.6289 0-14.109-4.1641-19.785-9.4375-6.1211-5.6836-13.059-12.129-26.645-12.129-13.578 0-20.516 6.4453-26.629 12.129-5.6719 5.2734-10.148 9.4375-19.77 9.4375-9.625 0-14.102-4.1641-19.777-9.4375-5.1484-4.7852-10.93-10.059-20.711-11.625 5.3047-7.2266 13.832-11.949 23.461-11.949zm-29.125 29.152c0-2.6172 0.37891-5.1406 1.0273-7.5547 8.7109 0.37109 13.086 4.3438 18.488 9.3633 6.1172 5.6836 13.055 12.129 26.633 12.129s20.516-6.4453 26.629-12.133c5.6719-5.2695 10.148-9.4336 19.77-9.4336 9.6289 0 14.109 4.1641 19.785 9.4375 6.1211 5.6836 13.059 12.129 26.645 12.129 13.59 0 20.527-6.4453 26.648-12.129 4.9805-4.6289 9.0508-8.3984 16.48-9.25 0.066406 0.82812 0.16797 1.6172 0.16797 2.5 0 18.801-15.281 34.094-34.062 34.094h-119.09c-16.059 0-29.125-13.074-29.125-29.152zm-11.301 48.402c0-5.0586 4.1172-9.1719 9.1719-9.1719h186.54c5.0586 0 9.1719 4.1133 9.1719 9.1719v9.5742c0 5.0586-4.1172 9.1719-9.1719 9.1719h-186.54c-5.0586 0-9.1719-4.1172-9.1719-9.1719z"></path>
  <path d="m389.1 279.09c1.2891 0 2.5781-0.49219 3.5625-1.4766l6.9258-6.9258c1.9688-1.9688 1.9688-5.1562 0-7.125s-5.1562-1.9688-7.125 0l-6.9258 6.9258c-1.9688 1.9688-1.9688 5.1562 0 7.125 0.98438 0.98438 2.2734 1.4766 3.5625 1.4766z"></path>
  <path d="m427.99 294.51c0.98438 0.98438 2.2734 1.4766 3.5625 1.4766 1.2891 0 2.5781-0.49219 3.5625-1.4766l6.9258-6.9258c1.9688-1.9688 1.9688-5.1562 0-7.125s-5.1562-1.9688-7.125 0l-6.9258 6.9258c-1.9688 1.9688-1.9688 5.1562 0 7.125z"></path>
  <path d="m423.79 273.59c2.7812 0 5.0391-2.2539 5.0391-5.0391v-9.793c0-2.7812-2.2539-5.0391-5.0391-5.0391-2.7812 0-5.0391 2.2539-5.0391 5.0391v9.7969c0 2.7812 2.2578 5.0352 5.0391 5.0352z"></path>
  <path d="m364.64 305.26-6.9258 6.9258c-1.9688 1.9688-1.9688 5.1562 0 7.125 0.98438 0.98438 2.2734 1.4766 3.5625 1.4766 1.2891 0 2.5781-0.49219 3.5625-1.4766l6.9258-6.9258c1.9688-1.9688 1.9688-5.1562 0-7.125s-5.1562-1.9688-7.125 0z"></path>
  <path d="m361.18 286.43c0.98438 0.98438 2.2734 1.4766 3.5625 1.4766 1.2891 0 2.5781-0.49219 3.5625-1.4766 1.9688-1.9688 1.9688-5.1562 0-7.125l-6.9258-6.9258c-1.9688-1.9688-5.1562-1.9688-7.125 0s-1.9688 5.1562 0 7.125z"></path>
  <path d="m431.45 312.19c-1.9688 1.9688-1.9688 5.1562 0 7.125l6.9258 6.9258c0.98438 0.98438 2.2734 1.4766 3.5625 1.4766 1.2891 0 2.5781-0.49219 3.5625-1.4766 1.9688-1.9688 1.9688-5.1562 0-7.125l-6.9258-6.9258c-1.9688-1.9688-5.1562-1.9688-7.125 0z"></path>
  <path d="m392.47 246.75c0.98438 0.98438 2.2734 1.4766 3.5625 1.4766s2.5781-0.49219 3.5625-1.4766c1.9688-1.9688 1.9688-5.1562 0-7.125l-6.9258-6.9258c-1.9688-1.9688-5.1562-1.9688-7.125 0s-1.9688 5.1562 0 7.125z"></path>
  <path d="m397.38 292.27c-1.9688 1.9688-1.9688 5.1562 0 7.125l6.9258 6.9258c0.98438 0.98438 2.2734 1.4766 3.5625 1.4766 1.2891 0 2.5781-0.49219 3.5625-1.4766 1.9688-1.9688 1.9688-5.1562 0-7.125l-6.9258-6.9258c-1.9688-1.9648-5.1602-1.9648-7.125 0z"></path>
 </g>

      </g>
     <g id="IconSvg_iconCarrier">
      <g xmlns="http://www.w3.org/2000/svg">
  <path d="m440.15 430.45c-2.6289-0.91797-5.5 0.46094-6.4219 3.082-2.7422 7.8125-5.1914 15.836-7.2695 23.852-0.76953 2.9609-1.6562 6.6562-2.6758 10.906-2.9492 12.305-6.9883 29.156-12.547 46.355-0.85547 2.6484 0.59766 5.4883 3.2461 6.3438 0.51562 0.16406 1.0391 0.24609 1.5508 0.24609 2.1289 0 4.1016-1.3594 4.793-3.4922 5.6797-17.57 9.7695-34.641 12.758-47.105 1-4.1836 1.8711-7.8164 2.6289-10.727 2.0117-7.7422 4.375-15.496 7.0234-23.043 0.91797-2.625-0.46094-5.5-3.0859-6.418z"></path>
  <path d="m376.21 468.29c-1.0195-4.25-1.9023-7.9453-2.6758-10.91-2.1445-8.2539-4.6719-16.516-7.5156-24.551-0.93359-2.6289-3.8242-4.0078-6.4297-3.0703-2.625 0.92969-3.9961 3.8086-3.0703 6.4297 2.75 7.7656 5.1914 15.746 7.2656 23.723 0.75391 2.9141 1.625 6.5469 2.6289 10.727 2.9883 12.465 7.0781 29.535 12.758 47.105 0.69141 2.1328 2.668 3.4922 4.793 3.4922 0.51172 0 1.0352-0.082031 1.5508-0.24609 2.6484-0.85547 4.1016-3.6992 3.2461-6.3438-5.5625-17.199-9.6016-34.051-12.551-46.355z"></path>
  <path d="m305.07 414.32c3.1289 5.5039 11.402 21.094 17.828 42.551 0.75391 2.5195 1.625 5.6641 2.6289 9.2852 7.4883 27.066 20.676 74.637 46.711 96.551l-22.332 3.7812c-8.375 1.4141-14.453 8.6094-14.453 17.105v3.1602c0 8.1445 6.625 14.773 14.773 14.773h99.551c8.1484 0 14.773-6.6289 14.773-14.773v-3.1602c0-8.4961-6.082-15.691-14.457-17.109l-22.332-3.7812c26.035-21.914 39.223-69.484 46.711-96.551 1-3.6172 1.8711-6.7656 2.6289-9.2852 6.4258-21.453 14.699-37.043 17.828-42.551 9.8281-0.85938 17.586-9.0352 17.586-19.082v-9.5742c0-10.613-8.6328-19.246-19.25-19.246h-8.168c9.832-8.1094 16.109-20.383 16.109-34.094 0-21.148-14.809-34.801-39.02-36.469 6.7773-8.8594 9.4648-16.535 9.4648-25.855 0-21.082-20.918-33.602-38.828-37.918-26.824-6.4648-28.047-26.375-28.098-28.621-0.0625-2.7383-2.3008-4.9805-5.0391-4.9805-20.402 0-36.996 16.609-36.996 37.02 0 2.7422 0.30078 5.4375 0.89844 8.082-20.375 0.59375-36.766 17.363-36.766 37.895 0 6.0156 1.4375 11.895 4.1367 17.188-18.277 3.3203-32.184 19.363-32.184 38.602 0 11.578 5.0664 21.965 13.062 29.152h-5.1133c-10.613 0-19.25 8.6328-19.25 19.246v9.5742c0.007813 10.047 7.7695 18.227 17.594 19.086zm149.41 169.27v3.1602c0 2.5898-2.1094 4.6953-4.6992 4.6953h-99.551c-2.5898 0-4.6992-2.1055-4.6992-4.6992v-3.1602c0-3.5625 2.5508-6.582 6.0625-7.1758l34.473-5.8359h27.871l34.473 5.8359c3.5195 0.59766 6.0703 3.6172 6.0703 7.1797zm12.973-129.62c-0.77344 2.5742-1.6602 5.7891-2.6836 9.4922-7.4219 26.824-22.801 82.285-51.727 97.039h-26.074c-28.926-14.754-44.305-70.215-51.727-97.039-1.0234-3.6992-1.9102-6.9141-2.6836-9.4922-5.3164-17.738-11.742-31.508-15.91-39.488h166.71c-4.1641 7.9805-10.594 21.746-15.91 39.488zm-129.46-145.87c0.41016 0 0.8125 0.03125 1.2188 0.058593l0.57422 0.035157c1.9844 0.14453 3.9336-0.98828 4.8281-2.8164 0.89453-1.8281 0.60156-4.0117-0.74219-5.5391-4.4883-5.0977-6.9609-11.625-6.9609-18.371 0-15.348 12.477-27.836 27.809-27.836 1.6758 0 3.4258 0.16797 5.1953 0.50391 1.8711 0.35938 3.7656-0.375 4.9258-1.8711 1.1602-1.5 1.3789-3.5234 0.5625-5.2383-1.7422-3.6719-2.625-7.5508-2.625-11.539 0-13.359 9.7656-24.48 22.523-26.586 1.8125 9.0234 8.7383 26.59 35.172 32.961 15.488 3.7305 31.113 13.871 31.113 28.121 0 8.1055-2.3555 15.254-14.402 27.781-1.5039 1.5586-1.8359 3.9102-0.83203 5.8281 1.0078 1.9219 3.1523 2.9805 5.2656 2.6367 2.0234-0.32812 3.8086-0.48438 5.4648-0.48438 6.3828 0 24.27 1.2578 31.223 14.312-9.7539 1.5781-15.527 6.8398-20.668 11.617-5.6758 5.2734-10.156 9.4375-19.789 9.4375-9.6289 0-14.109-4.1641-19.785-9.4375-6.1211-5.6836-13.059-12.129-26.645-12.129-13.578 0-20.516 6.4453-26.629 12.129-5.6719 5.2734-10.148 9.4375-19.77 9.4375-9.625 0-14.102-4.1641-19.777-9.4375-5.1484-4.7852-10.93-10.059-20.711-11.625 5.3047-7.2266 13.832-11.949 23.461-11.949zm-29.125 29.152c0-2.6172 0.37891-5.1406 1.0273-7.5547 8.7109 0.37109 13.086 4.3438 18.488 9.3633 6.1172 5.6836 13.055 12.129 26.633 12.129s20.516-6.4453 26.629-12.133c5.6719-5.2695 10.148-9.4336 19.77-9.4336 9.6289 0 14.109 4.1641 19.785 9.4375 6.1211 5.6836 13.059 12.129 26.645 12.129 13.59 0 20.527-6.4453 26.648-12.129 4.9805-4.6289 9.0508-8.3984 16.48-9.25 0.066406 0.82812 0.16797 1.6172 0.16797 2.5 0 18.801-15.281 34.094-34.062 34.094h-119.09c-16.059 0-29.125-13.074-29.125-29.152zm-11.301 48.402c0-5.0586 4.1172-9.1719 9.1719-9.1719h186.54c5.0586 0 9.1719 4.1133 9.1719 9.1719v9.5742c0 5.0586-4.1172 9.1719-9.1719 9.1719h-186.54c-5.0586 0-9.1719-4.1172-9.1719-9.1719z"></path>
  <path d="m389.1 279.09c1.2891 0 2.5781-0.49219 3.5625-1.4766l6.9258-6.9258c1.9688-1.9688 1.9688-5.1562 0-7.125s-5.1562-1.9688-7.125 0l-6.9258 6.9258c-1.9688 1.9688-1.9688 5.1562 0 7.125 0.98438 0.98438 2.2734 1.4766 3.5625 1.4766z"></path>
  <path d="m427.99 294.51c0.98438 0.98438 2.2734 1.4766 3.5625 1.4766 1.2891 0 2.5781-0.49219 3.5625-1.4766l6.9258-6.9258c1.9688-1.9688 1.9688-5.1562 0-7.125s-5.1562-1.9688-7.125 0l-6.9258 6.9258c-1.9688 1.9688-1.9688 5.1562 0 7.125z"></path>
  <path d="m423.79 273.59c2.7812 0 5.0391-2.2539 5.0391-5.0391v-9.793c0-2.7812-2.2539-5.0391-5.0391-5.0391-2.7812 0-5.0391 2.2539-5.0391 5.0391v9.7969c0 2.7812 2.2578 5.0352 5.0391 5.0352z"></path>
  <path d="m364.64 305.26-6.9258 6.9258c-1.9688 1.9688-1.9688 5.1562 0 7.125 0.98438 0.98438 2.2734 1.4766 3.5625 1.4766 1.2891 0 2.5781-0.49219 3.5625-1.4766l6.9258-6.9258c1.9688-1.9688 1.9688-5.1562 0-7.125s-5.1562-1.9688-7.125 0z"></path>
  <path d="m361.18 286.43c0.98438 0.98438 2.2734 1.4766 3.5625 1.4766 1.2891 0 2.5781-0.49219 3.5625-1.4766 1.9688-1.9688 1.9688-5.1562 0-7.125l-6.9258-6.9258c-1.9688-1.9688-5.1562-1.9688-7.125 0s-1.9688 5.1562 0 7.125z"></path>
  <path d="m431.45 312.19c-1.9688 1.9688-1.9688 5.1562 0 7.125l6.9258 6.9258c0.98438 0.98438 2.2734 1.4766 3.5625 1.4766 1.2891 0 2.5781-0.49219 3.5625-1.4766 1.9688-1.9688 1.9688-5.1562 0-7.125l-6.9258-6.9258c-1.9688-1.9688-5.1562-1.9688-7.125 0z"></path>
  <path d="m392.47 246.75c0.98438 0.98438 2.2734 1.4766 3.5625 1.4766s2.5781-0.49219 3.5625-1.4766c1.9688-1.9688 1.9688-5.1562 0-7.125l-6.9258-6.9258c-1.9688-1.9688-5.1562-1.9688-7.125 0s-1.9688 5.1562 0 7.125z"></path>
  <path d="m397.38 292.27c-1.9688 1.9688-1.9688 5.1562 0 7.125l6.9258 6.9258c0.98438 0.98438 2.2734 1.4766 3.5625 1.4766 1.2891 0 2.5781-0.49219 3.5625-1.4766 1.9688-1.9688 1.9688-5.1562 0-7.125l-6.9258-6.9258c-1.9688-1.9648-5.1602-1.9648-7.125 0z"></path>
 </g>

      </g>
      </svg>