<svg id="svg" fill="#6f64b4" stroke="#6f64b4" width="200" height="200" version="1.1" viewBox="144 144 512 512" xmlns="http://www.w3.org/2000/svg">
    <g id="IconSvg_bgCarrier" stroke-width="0"></g>
    <g id="IconSvg_tracerCarrier" stroke-linecap="round" stroke-linejoin="round" stroke="#CCCCCC" stroke-width="0">
      <path xmlns="http://www.w3.org/2000/svg" d="m227.34 601.52h235.38c1.332 0 2.6055-0.52734 3.5508-1.4648l111.35-110.57c0.95312-0.94531 1.4883-2.2305 1.4883-3.5742l0.007812-282.4c0-1.3359-0.53125-2.6172-1.4766-3.5625-0.94141-0.94141-2.2266-1.4727-3.5625-1.4727h-346.74c-2.7812 0-5.0391 2.2539-5.0391 5.0391v392.97c0 2.7773 2.2578 5.0352 5.0391 5.0352zm238.47-15.203v-98.105h98.789zm-233.43-377.77h336.66l-0.011718 269.59h-108.26c-2.7812 0-5.0391 2.2539-5.0391 5.0391v108.27h-223.36z"></path>

      </g>
     <g id="IconSvg_iconCarrier">
      <path xmlns="http://www.w3.org/2000/svg" d="m227.34 601.52h235.38c1.332 0 2.6055-0.52734 3.5508-1.4648l111.35-110.57c0.95312-0.94531 1.4883-2.2305 1.4883-3.5742l0.007812-282.4c0-1.3359-0.53125-2.6172-1.4766-3.5625-0.94141-0.94141-2.2266-1.4727-3.5625-1.4727h-346.74c-2.7812 0-5.0391 2.2539-5.0391 5.0391v392.97c0 2.7773 2.2578 5.0352 5.0391 5.0352zm238.47-15.203v-98.105h98.789zm-233.43-377.77h336.66l-0.011718 269.59h-108.26c-2.7812 0-5.0391 2.2539-5.0391 5.0391v108.27h-223.36z"></path>

      </g>
      </svg>