<svg id="svg" fill="#6f64b4" stroke="#6f64b4" width="200" height="200" version="1.1" viewBox="144 144 512 512" xmlns="http://www.w3.org/2000/svg">
    <g id="IconSvg_bgCarrier" stroke-width="0"></g>
    <g id="IconSvg_tracerCarrier" stroke-linecap="round" stroke-linejoin="round" stroke="#CCCCCC" stroke-width="0">
      <g xmlns="http://www.w3.org/2000/svg">
  <path d="m453.2 198.48h-227.73c-14.883 0-26.988 12.105-26.988 26.988v349.07c0 14.883 12.105 26.992 26.988 26.992h227.73c14.879 0 26.988-12.109 26.988-26.992v-80.316c7.3906-3.4531 28.312-13.906 50.98-31.336 36.887-28.367 60.363-61.73 67.887-96.48 7.9219-36.613-5.1914-81.848-45.59-97.477-26.516-10.254-53.965-1.8789-73.277 21.246v-64.703c0-14.883-12.109-26.988-26.988-26.988zm-55.887 70.441c-40.395 15.625-53.508 60.867-45.582 97.477 7.5195 34.75 30.992 68.113 67.883 96.48 22.199 17.07 42.715 27.445 50.5 31.109v24.945l-261.56-0.003907v-264.61h261.55v35.285c-19.285-22.691-46.5-30.859-72.797-20.688zm-171.84-60.367h227.73c9.3242 0 16.914 7.5859 16.914 16.914v18.781h-261.56v-18.781c0-9.3281 7.5859-16.914 16.914-16.914zm227.73 382.89h-227.73c-9.3281 0-16.914-7.5859-16.914-16.914v-45.531l261.55 0.003906v45.523c0 9.332-7.5859 16.918-16.91 16.918zm96.629-313.13c25.766 9.9688 49.078 41.113 39.371 85.941-15.652 72.309-99.738 114.47-113.81 121.06-14.074-6.5938-98.168-48.754-113.81-121.06-9.7031-44.832 13.605-75.977 39.367-85.941 5.8359-2.2578 12.34-3.5898 19.117-3.5898 17.168 0 36.086 8.6133 50.359 32.582 0.65625 2.0195 2.4883 3.5039 4.7305 3.5039 0.82031 0 1.5664-0.24219 2.25-0.58984 0.95703-0.37109 1.8086-0.99219 2.3516-1.9219 19.918-34.387 49.258-38.039 70.078-29.984z"></path>
  <path d="m339.33 540.36h-0.011719c-5.5352 0-10.742 2.1562-14.652 6.0703-3.918 3.918-6.0781 9.125-6.0781 14.668 0 11.434 9.3047 20.738 20.738 20.738h0.011719c5.5391 0 10.742-2.1562 14.656-6.0703 3.918-3.918 6.0742-9.125 6.0742-14.668 0-11.434-9.3008-20.738-20.738-20.738zm7.543 28.281c-2.0117 2.0117-4.6875 3.1211-7.5352 3.1211h-0.007813c-5.8789 0-10.664-4.7812-10.664-10.66 0-2.8477 1.1094-5.5312 3.125-7.543 2.0117-2.0117 4.6875-3.1211 7.5312-3.1211h0.007813c5.8789 0 10.664 4.7812 10.664 10.66 0 2.8477-1.1094 5.5312-3.1211 7.543z"></path>
 </g>

      </g>
     <g id="IconSvg_iconCarrier">
      <g xmlns="http://www.w3.org/2000/svg">
  <path d="m453.2 198.48h-227.73c-14.883 0-26.988 12.105-26.988 26.988v349.07c0 14.883 12.105 26.992 26.988 26.992h227.73c14.879 0 26.988-12.109 26.988-26.992v-80.316c7.3906-3.4531 28.312-13.906 50.98-31.336 36.887-28.367 60.363-61.73 67.887-96.48 7.9219-36.613-5.1914-81.848-45.59-97.477-26.516-10.254-53.965-1.8789-73.277 21.246v-64.703c0-14.883-12.109-26.988-26.988-26.988zm-55.887 70.441c-40.395 15.625-53.508 60.867-45.582 97.477 7.5195 34.75 30.992 68.113 67.883 96.48 22.199 17.07 42.715 27.445 50.5 31.109v24.945l-261.56-0.003907v-264.61h261.55v35.285c-19.285-22.691-46.5-30.859-72.797-20.688zm-171.84-60.367h227.73c9.3242 0 16.914 7.5859 16.914 16.914v18.781h-261.56v-18.781c0-9.3281 7.5859-16.914 16.914-16.914zm227.73 382.89h-227.73c-9.3281 0-16.914-7.5859-16.914-16.914v-45.531l261.55 0.003906v45.523c0 9.332-7.5859 16.918-16.91 16.918zm96.629-313.13c25.766 9.9688 49.078 41.113 39.371 85.941-15.652 72.309-99.738 114.47-113.81 121.06-14.074-6.5938-98.168-48.754-113.81-121.06-9.7031-44.832 13.605-75.977 39.367-85.941 5.8359-2.2578 12.34-3.5898 19.117-3.5898 17.168 0 36.086 8.6133 50.359 32.582 0.65625 2.0195 2.4883 3.5039 4.7305 3.5039 0.82031 0 1.5664-0.24219 2.25-0.58984 0.95703-0.37109 1.8086-0.99219 2.3516-1.9219 19.918-34.387 49.258-38.039 70.078-29.984z"></path>
  <path d="m339.33 540.36h-0.011719c-5.5352 0-10.742 2.1562-14.652 6.0703-3.918 3.918-6.0781 9.125-6.0781 14.668 0 11.434 9.3047 20.738 20.738 20.738h0.011719c5.5391 0 10.742-2.1562 14.656-6.0703 3.918-3.918 6.0742-9.125 6.0742-14.668 0-11.434-9.3008-20.738-20.738-20.738zm7.543 28.281c-2.0117 2.0117-4.6875 3.1211-7.5352 3.1211h-0.007813c-5.8789 0-10.664-4.7812-10.664-10.66 0-2.8477 1.1094-5.5312 3.125-7.543 2.0117-2.0117 4.6875-3.1211 7.5312-3.1211h0.007813c5.8789 0 10.664 4.7812 10.664 10.66 0 2.8477-1.1094 5.5312-3.1211 7.543z"></path>
 </g>

      </g>
      </svg>