<svg id="svg" fill="#6f64b4" stroke="#6f64b4" width="200" height="200" version="1.1" viewBox="144 144 512 512" xmlns="http://www.w3.org/2000/svg">
    <g id="IconSvg_bgCarrier" stroke-width="0"></g>
    <g id="IconSvg_tracerCarrier" stroke-linecap="round" stroke-linejoin="round" stroke="#CCCCCC" stroke-width="0">
      <g xmlns="http://www.w3.org/2000/svg">
  <path d="m227.34 601.52h235.38c1.3281 0 2.6094-0.52734 3.5508-1.4648l111.34-110.57c0.94922-0.94531 1.4844-2.2305 1.4844-3.5742l0.019532-282.4c0-1.3359-0.53125-2.6172-1.4766-3.5625-0.94531-0.94141-2.2227-1.4727-3.5625-1.4727h-346.74c-2.7852 0-5.0391 2.2539-5.0391 5.0391v392.97c0 2.7773 2.2539 5.0352 5.0391 5.0352zm238.47-15.207v-98.102h98.781zm-233.43-377.77h336.67l-0.015625 269.59h-108.26c-2.7852 0-5.0391 2.2539-5.0391 5.0391l0.003906 108.27h-223.36z"></path>
  <path d="m466.8 285.25h32.25c2.7852 0 5.0391-2.2539 5.0391-5.0391 0-2.7812-2.2539-5.0391-5.0391-5.0391h-32.25c-2.7852 0-5.0391 2.2539-5.0391 5.0391 0.003906 2.7852 2.2578 5.0391 5.0391 5.0391z"></path>
  <path d="m333.2 335.07h-32.25c-2.7852 0-5.0391 2.2539-5.0391 5.0391 0 2.7812 2.2539 5.0391 5.0391 5.0391h32.25c2.7852 0 5.0391-2.2539 5.0391-5.0391 0-2.7812-2.2539-5.0391-5.0391-5.0391z"></path>
  <path d="m416.12 335.07h-32.254c-2.7852 0-5.0391 2.2539-5.0391 5.0391 0 2.7812 2.2539 5.0391 5.0391 5.0391h32.254c2.7852 0 5.0391-2.2539 5.0391-5.0391 0-2.7812-2.2539-5.0391-5.0391-5.0391z"></path>
  <path d="m466.8 345.14h32.25c2.7852 0 5.0391-2.2539 5.0391-5.0391 0-2.7812-2.2539-5.0391-5.0391-5.0391h-32.25c-2.7852 0-5.0391 2.2539-5.0391 5.0391 0.003906 2.7812 2.2578 5.0391 5.0391 5.0391z"></path>
  <path d="m333.2 394.96h-32.25c-2.7852 0-5.0391 2.2539-5.0391 5.0391 0 2.7812 2.2539 5.0391 5.0391 5.0391h32.25c2.7852 0 5.0391-2.2539 5.0391-5.0391s-2.2539-5.0391-5.0391-5.0391z"></path>
  <path d="m416.12 394.96h-32.254c-2.7852 0-5.0391 2.2539-5.0391 5.0391 0 2.7812 2.2539 5.0391 5.0391 5.0391h32.254c2.7852 0 5.0391-2.2539 5.0391-5.0391s-2.2539-5.0391-5.0391-5.0391z"></path>
  <path d="m466.8 405.04h32.25c2.7852 0 5.0391-2.2539 5.0391-5.0391 0-2.7812-2.2539-5.0391-5.0391-5.0391h-32.25c-2.7852 0-5.0391 2.2539-5.0391 5.0391 0.003906 2.7852 2.2578 5.0391 5.0391 5.0391z"></path>
  <path d="m333.2 454.86h-32.25c-2.7852 0-5.0391 2.2539-5.0391 5.0391 0 2.7812 2.2539 5.0391 5.0391 5.0391h32.25c2.7852 0 5.0391-2.2539 5.0391-5.0391 0-2.7852-2.2539-5.0391-5.0391-5.0391z"></path>
  <path d="m416.12 454.86h-32.254c-2.7852 0-5.0391 2.2539-5.0391 5.0391 0 2.7812 2.2539 5.0391 5.0391 5.0391h32.254c2.7852 0 5.0391-2.2539 5.0391-5.0391 0-2.7852-2.2539-5.0391-5.0391-5.0391z"></path>
  <path d="m333.2 514.75h-32.25c-2.7852 0-5.0391 2.2539-5.0391 5.0391 0 2.7812 2.2539 5.0391 5.0391 5.0391h32.25c2.7852 0 5.0391-2.2539 5.0391-5.0391 0-2.7812-2.2539-5.0391-5.0391-5.0391z"></path>
  <path d="m416.12 514.75h-32.254c-2.7852 0-5.0391 2.2539-5.0391 5.0391 0 2.7812 2.2539 5.0391 5.0391 5.0391h32.254c2.7852 0 5.0391-2.2539 5.0391-5.0391 0-2.7812-2.2539-5.0391-5.0391-5.0391z"></path>
  <path d="m333.2 275.17h-32.25c-2.7852 0-5.0391 2.2539-5.0391 5.0391 0 2.7812 2.2539 5.0391 5.0391 5.0391h32.25c2.7852 0 5.0391-2.2539 5.0391-5.0391 0-2.7852-2.2539-5.0391-5.0391-5.0391z"></path>
  <path d="m383.87 285.25h32.254c2.7852 0 5.0391-2.2539 5.0391-5.0391 0-2.7812-2.2539-5.0391-5.0391-5.0391h-32.254c-2.7852 0-5.0391 2.2539-5.0391 5.0391 0 2.7852 2.2539 5.0391 5.0391 5.0391z"></path>
 </g>

      </g>
     <g id="IconSvg_iconCarrier">
      <g xmlns="http://www.w3.org/2000/svg">
  <path d="m227.34 601.52h235.38c1.3281 0 2.6094-0.52734 3.5508-1.4648l111.34-110.57c0.94922-0.94531 1.4844-2.2305 1.4844-3.5742l0.019532-282.4c0-1.3359-0.53125-2.6172-1.4766-3.5625-0.94531-0.94141-2.2227-1.4727-3.5625-1.4727h-346.74c-2.7852 0-5.0391 2.2539-5.0391 5.0391v392.97c0 2.7773 2.2539 5.0352 5.0391 5.0352zm238.47-15.207v-98.102h98.781zm-233.43-377.77h336.67l-0.015625 269.59h-108.26c-2.7852 0-5.0391 2.2539-5.0391 5.0391l0.003906 108.27h-223.36z"></path>
  <path d="m466.8 285.25h32.25c2.7852 0 5.0391-2.2539 5.0391-5.0391 0-2.7812-2.2539-5.0391-5.0391-5.0391h-32.25c-2.7852 0-5.0391 2.2539-5.0391 5.0391 0.003906 2.7852 2.2578 5.0391 5.0391 5.0391z"></path>
  <path d="m333.2 335.07h-32.25c-2.7852 0-5.0391 2.2539-5.0391 5.0391 0 2.7812 2.2539 5.0391 5.0391 5.0391h32.25c2.7852 0 5.0391-2.2539 5.0391-5.0391 0-2.7812-2.2539-5.0391-5.0391-5.0391z"></path>
  <path d="m416.12 335.07h-32.254c-2.7852 0-5.0391 2.2539-5.0391 5.0391 0 2.7812 2.2539 5.0391 5.0391 5.0391h32.254c2.7852 0 5.0391-2.2539 5.0391-5.0391 0-2.7812-2.2539-5.0391-5.0391-5.0391z"></path>
  <path d="m466.8 345.14h32.25c2.7852 0 5.0391-2.2539 5.0391-5.0391 0-2.7812-2.2539-5.0391-5.0391-5.0391h-32.25c-2.7852 0-5.0391 2.2539-5.0391 5.0391 0.003906 2.7812 2.2578 5.0391 5.0391 5.0391z"></path>
  <path d="m333.2 394.96h-32.25c-2.7852 0-5.0391 2.2539-5.0391 5.0391 0 2.7812 2.2539 5.0391 5.0391 5.0391h32.25c2.7852 0 5.0391-2.2539 5.0391-5.0391s-2.2539-5.0391-5.0391-5.0391z"></path>
  <path d="m416.12 394.96h-32.254c-2.7852 0-5.0391 2.2539-5.0391 5.0391 0 2.7812 2.2539 5.0391 5.0391 5.0391h32.254c2.7852 0 5.0391-2.2539 5.0391-5.0391s-2.2539-5.0391-5.0391-5.0391z"></path>
  <path d="m466.8 405.04h32.25c2.7852 0 5.0391-2.2539 5.0391-5.0391 0-2.7812-2.2539-5.0391-5.0391-5.0391h-32.25c-2.7852 0-5.0391 2.2539-5.0391 5.0391 0.003906 2.7852 2.2578 5.0391 5.0391 5.0391z"></path>
  <path d="m333.2 454.86h-32.25c-2.7852 0-5.0391 2.2539-5.0391 5.0391 0 2.7812 2.2539 5.0391 5.0391 5.0391h32.25c2.7852 0 5.0391-2.2539 5.0391-5.0391 0-2.7852-2.2539-5.0391-5.0391-5.0391z"></path>
  <path d="m416.12 454.86h-32.254c-2.7852 0-5.0391 2.2539-5.0391 5.0391 0 2.7812 2.2539 5.0391 5.0391 5.0391h32.254c2.7852 0 5.0391-2.2539 5.0391-5.0391 0-2.7852-2.2539-5.0391-5.0391-5.0391z"></path>
  <path d="m333.2 514.75h-32.25c-2.7852 0-5.0391 2.2539-5.0391 5.0391 0 2.7812 2.2539 5.0391 5.0391 5.0391h32.25c2.7852 0 5.0391-2.2539 5.0391-5.0391 0-2.7812-2.2539-5.0391-5.0391-5.0391z"></path>
  <path d="m416.12 514.75h-32.254c-2.7852 0-5.0391 2.2539-5.0391 5.0391 0 2.7812 2.2539 5.0391 5.0391 5.0391h32.254c2.7852 0 5.0391-2.2539 5.0391-5.0391 0-2.7812-2.2539-5.0391-5.0391-5.0391z"></path>
  <path d="m333.2 275.17h-32.25c-2.7852 0-5.0391 2.2539-5.0391 5.0391 0 2.7812 2.2539 5.0391 5.0391 5.0391h32.25c2.7852 0 5.0391-2.2539 5.0391-5.0391 0-2.7852-2.2539-5.0391-5.0391-5.0391z"></path>
  <path d="m383.87 285.25h32.254c2.7852 0 5.0391-2.2539 5.0391-5.0391 0-2.7812-2.2539-5.0391-5.0391-5.0391h-32.254c-2.7852 0-5.0391 2.2539-5.0391 5.0391 0 2.7852 2.2539 5.0391 5.0391 5.0391z"></path>
 </g>

      </g>
      </svg>